<svg width="1520" height="280" viewBox="0 0 1520 280" fill="none" xmlns="http://www.w3.org/2000/svg">
<rect y="260" width="20" height="20" fill="#121212"/>
<rect x="20" y="260" width="20" height="20" fill="#121212"/>
<rect x="40" y="260" width="20" height="20" fill="#121212"/>
<rect x="60" y="260" width="20" height="20" fill="#121212"/>
<rect x="80" y="260" width="20" height="20" fill="#121212"/>
<rect x="100" y="260" width="20" height="20" fill="#121212"/>
<rect x="120" y="260" width="20" height="20" fill="#121212"/>
<rect x="140" y="260" width="20" height="20" fill="#121212"/>
<rect x="160" y="260" width="20" height="20" fill="#121212"/>
<rect x="180" y="260" width="20" height="20" fill="#121212"/>
<rect x="200" y="260" width="20" height="20" fill="#121212"/>
<rect x="220" y="260" width="20" height="20" fill="#121212"/>
<rect x="240" y="260" width="20" height="20" fill="#121212"/>
<rect x="260" y="260" width="20" height="20" fill="#121212"/>
<rect x="280" y="260" width="20" height="20" fill="#121212"/>
<rect x="300" y="260" width="20" height="20" fill="#121212"/>
<rect x="320" y="260" width="20" height="20" fill="#121212"/>
<rect x="340" y="260" width="20" height="20" fill="#121212"/>
<rect x="360" y="260" width="20" height="20" fill="#121212"/>
<rect x="380" y="260" width="20" height="20" fill="#121212"/>
<rect x="400" y="260" width="20" height="20" fill="#121212"/>
<rect x="420" y="260" width="20" height="20" fill="#121212"/>
<rect x="440" y="260" width="20" height="20" fill="#121212"/>
<rect x="460" y="260" width="20" height="20" fill="#121212"/>
<rect x="480" y="260" width="20" height="20" fill="#121212"/>
<rect x="500" y="260" width="20" height="20" fill="#121212"/>
<rect x="520" y="260" width="20" height="20" fill="#121212"/>
<rect x="540" y="260" width="20" height="20" fill="#121212"/>
<rect x="560" y="260" width="20" height="20" fill="#121212"/>
<rect x="580" y="260" width="20" height="20" fill="#121212"/>
<rect x="600" y="260" width="20" height="20" fill="#121212"/>
<rect x="620" y="260" width="20" height="20" fill="#121212"/>
<rect x="640" y="260" width="20" height="20" fill="#121212"/>
<rect x="660" y="260" width="20" height="20" fill="#121212"/>
<rect x="680" y="260" width="20" height="20" fill="#121212"/>
<rect x="700" y="260" width="20" height="20" fill="#121212"/>
<rect x="720" y="260" width="20" height="20" fill="#121212"/>
<rect x="740" y="260" width="20" height="20" fill="#121212"/>
<rect x="760" y="260" width="20" height="20" fill="#121212"/>
<rect x="780" y="260" width="20" height="20" fill="#121212"/>
<rect x="800" y="260" width="20" height="20" fill="#121212"/>
<rect x="820" y="260" width="20" height="20" fill="#121212"/>
<rect x="840" y="260" width="20" height="20" fill="#121212"/>
<rect x="860" y="260" width="20" height="20" fill="#121212"/>
<rect x="880" y="260" width="20" height="20" fill="#121212"/>
<rect x="900" y="260" width="20" height="20" fill="#121212"/>
<rect x="920" y="260" width="20" height="20" fill="#121212"/>
<rect x="940" y="260" width="20" height="20" fill="#121212"/>
<rect x="960" y="260" width="20" height="20" fill="#121212"/>
<rect x="980" y="260" width="20" height="20" fill="#121212"/>
<rect x="1000" y="260" width="20" height="20" fill="#121212"/>
<rect x="1020" y="260" width="20" height="20" fill="#121212"/>
<rect x="1040" y="260" width="20" height="20" fill="#121212"/>
<rect x="1060" y="260" width="20" height="20" fill="#121212"/>
<rect x="1080" y="260" width="20" height="20" fill="#121212"/>
<rect x="1100" y="260" width="20" height="20" fill="#121212"/>
<rect x="1120" y="260" width="20" height="20" fill="#121212"/>
<rect x="1140" y="260" width="20" height="20" fill="#121212"/>
<rect x="1160" y="260" width="20" height="20" fill="#121212"/>
<rect x="1180" y="260" width="20" height="20" fill="#121212"/>
<rect x="1200" y="260" width="20" height="20" fill="#121212"/>
<rect x="1220" y="260" width="20" height="20" fill="#121212"/>
<rect x="1240" y="260" width="20" height="20" fill="#121212"/>
<rect x="1260" y="260" width="20" height="20" fill="#121212"/>
<rect x="1280" y="260" width="20" height="20" fill="#121212"/>
<rect x="1300" y="260" width="20" height="20" fill="#121212"/>
<rect x="1320" y="260" width="20" height="20" fill="#121212"/>
<rect x="1340" y="260" width="20" height="20" fill="#121212"/>
<rect x="1360" y="260" width="20" height="20" fill="#121212"/>
<rect x="1380" y="260" width="20" height="20" fill="#121212"/>
<rect x="1400" y="260" width="20" height="20" fill="#121212"/>
<rect x="1420" y="260" width="20" height="20" fill="#121212"/>
<rect x="1440" y="260" width="20" height="20" fill="#121212"/>
<rect x="1460" y="260" width="20" height="20" fill="#121212"/>
<rect x="1480" y="260" width="20" height="20" fill="#121212"/>
<rect x="1500" y="260" width="20" height="20" fill="#121212"/>
<rect y="240" width="20" height="20" fill="#121212"/>
<rect x="20" y="240" width="20" height="20" fill="#121212"/>
<rect x="40" y="240" width="20" height="20" fill="#121212"/>
<rect x="60" y="240" width="20" height="20" fill="#121212"/>
<rect x="80" y="240" width="20" height="20" fill="#121212"/>
<rect x="100" y="240" width="20" height="20" fill="#121212"/>
<rect x="140" y="240" width="20" height="20" fill="#121212"/>
<rect x="180" y="240" width="20" height="20" fill="#121212"/>
<rect x="200" y="240" width="20" height="20" fill="#121212"/>
<rect x="220" y="240" width="20" height="20" fill="#121212"/>
<rect x="240" y="240" width="20" height="20" fill="#121212"/>
<rect x="260" y="240" width="20" height="20" fill="#121212"/>
<rect x="280" y="240" width="20" height="20" fill="#121212"/>
<rect x="300" y="240" width="20" height="20" fill="#121212"/>
<rect x="320" y="240" width="20" height="20" fill="#121212"/>
<rect x="340" y="240" width="20" height="20" fill="#121212"/>
<rect x="360" y="240" width="20" height="20" fill="#121212"/>
<rect x="380" y="240" width="20" height="20" fill="#121212"/>
<rect x="400" y="240" width="20" height="20" fill="#121212"/>
<rect x="420" y="240" width="20" height="20" fill="#121212"/>
<rect x="440" y="240" width="20" height="20" fill="#121212"/>
<rect x="460" y="240" width="20" height="20" fill="#121212"/>
<rect x="480" y="240" width="20" height="20" fill="#121212"/>
<rect x="500" y="240" width="20" height="20" fill="#121212"/>
<rect x="520" y="240" width="20" height="20" fill="#121212"/>
<rect x="540" y="240" width="20" height="20" fill="#121212"/>
<rect x="560" y="240" width="20" height="20" fill="#121212"/>
<rect x="600" y="240" width="20" height="20" fill="#121212"/>
<rect x="620" y="240" width="20" height="20" fill="#121212"/>
<rect x="640" y="240" width="20" height="20" fill="#121212"/>
<rect x="660" y="240" width="20" height="20" fill="#121212"/>
<rect x="680" y="240" width="20" height="20" fill="#121212"/>
<rect x="700" y="240" width="20" height="20" fill="#121212"/>
<rect x="720" y="240" width="20" height="20" fill="#121212"/>
<rect x="740" y="240" width="20" height="20" fill="#121212"/>
<rect x="760" y="240" width="20" height="20" fill="#121212"/>
<rect x="780" y="240" width="20" height="20" fill="#121212"/>
<rect x="800" y="240" width="20" height="20" fill="#121212"/>
<rect x="820" y="240" width="20" height="20" fill="#121212"/>
<rect x="840" y="240" width="20" height="20" fill="#121212"/>
<rect x="860" y="240" width="20" height="20" fill="#121212"/>
<rect x="880" y="240" width="20" height="20" fill="#121212"/>
<rect x="900" y="240" width="20" height="20" fill="#121212"/>
<rect x="920" y="240" width="20" height="20" fill="#121212"/>
<rect x="940" y="240" width="20" height="20" fill="#121212"/>
<rect x="960" y="240" width="20" height="20" fill="#121212"/>
<rect x="980" y="240" width="20" height="20" fill="#121212"/>
<rect x="1000" y="240" width="20" height="20" fill="#121212"/>
<rect x="1020" y="240" width="20" height="20" fill="#121212"/>
<rect x="1040" y="240" width="20" height="20" fill="#121212"/>
<rect x="1060" y="240" width="20" height="20" fill="#121212"/>
<rect x="1080" y="240" width="20" height="20" fill="#121212"/>
<rect x="1120" y="240" width="20" height="20" fill="#121212"/>
<rect x="1140" y="240" width="20" height="20" fill="#121212"/>
<rect x="1160" y="240" width="20" height="20" fill="#121212"/>
<rect x="1180" y="240" width="20" height="20" fill="#121212"/>
<rect x="1200" y="240" width="20" height="20" fill="#121212"/>
<rect x="1220" y="240" width="20" height="20" fill="#121212"/>
<rect x="1240" y="240" width="20" height="20" fill="#121212"/>
<rect x="1260" y="240" width="20" height="20" fill="#121212"/>
<rect x="1280" y="240" width="20" height="20" fill="#121212"/>
<rect x="1320" y="240" width="20" height="20" fill="#121212"/>
<rect x="1360" y="240" width="20" height="20" fill="#121212"/>
<rect x="1380" y="240" width="20" height="20" fill="#121212"/>
<rect x="1400" y="240" width="20" height="20" fill="#121212"/>
<rect x="1420" y="240" width="20" height="20" fill="#121212"/>
<rect x="1440" y="240" width="20" height="20" fill="#121212"/>
<rect x="1460" y="240" width="20" height="20" fill="#121212"/>
<rect x="1480" y="240" width="20" height="20" fill="#121212"/>
<rect x="1500" y="240" width="20" height="20" fill="#121212"/>
<rect y="220" width="20" height="20" fill="#121212"/>
<rect x="20" y="220" width="20" height="20" fill="#121212"/>
<rect x="40" y="220" width="20" height="20" fill="#121212"/>
<rect x="60" y="220" width="20" height="20" fill="#121212"/>
<rect x="80" y="220" width="20" height="20" fill="#121212"/>
<rect x="100" y="220" width="20" height="20" fill="#121212"/>
<rect x="120" y="220" width="20" height="20" fill="#121212"/>
<rect x="140" y="220" width="20" height="20" fill="#121212"/>
<rect x="160" y="220" width="20" height="20" fill="#121212"/>
<rect x="200" y="220" width="20" height="20" fill="#121212"/>
<rect x="220" y="220" width="20" height="20" fill="#121212"/>
<rect x="260" y="220" width="20" height="20" fill="#121212"/>
<rect x="280" y="220" width="20" height="20" fill="#121212"/>
<rect x="320" y="220" width="20" height="20" fill="#121212"/>
<rect x="340" y="220" width="20" height="20" fill="#121212"/>
<rect x="360" y="220" width="20" height="20" fill="#121212"/>
<rect x="380" y="220" width="20" height="20" fill="#121212"/>
<rect x="400" y="220" width="20" height="20" fill="#121212"/>
<rect x="420" y="220" width="20" height="20" fill="#121212"/>
<rect x="460" y="220" width="20" height="20" fill="#121212"/>
<rect x="480" y="220" width="20" height="20" fill="#121212"/>
<rect x="520" y="220" width="20" height="20" fill="#121212"/>
<rect x="540" y="220" width="20" height="20" fill="#121212"/>
<rect x="560" y="220" width="20" height="20" fill="#121212"/>
<rect x="640" y="220" width="20" height="20" fill="#121212"/>
<rect x="660" y="220" width="20" height="20" fill="#121212"/>
<rect x="680" y="220" width="20" height="20" fill="#121212"/>
<rect x="700" y="220" width="20" height="20" fill="#121212"/>
<rect x="720" y="220" width="20" height="20" fill="#121212"/>
<rect x="740" y="220" width="20" height="20" fill="#121212"/>
<rect x="760" y="220" width="20" height="20" fill="#121212"/>
<rect x="780" y="220" width="20" height="20" fill="#121212"/>
<rect x="800" y="220" width="20" height="20" fill="#121212"/>
<rect x="820" y="220" width="20" height="20" fill="#121212"/>
<rect x="860" y="220" width="20" height="20" fill="#121212"/>
<rect x="880" y="220" width="20" height="20" fill="#121212"/>
<rect x="920" y="220" width="20" height="20" fill="#121212"/>
<rect x="940" y="220" width="20" height="20" fill="#121212"/>
<rect x="960" y="220" width="20" height="20" fill="#121212"/>
<rect x="980" y="220" width="20" height="20" fill="#121212"/>
<rect x="1000" y="220" width="20" height="20" fill="#121212"/>
<rect x="1020" y="220" width="20" height="20" fill="#121212"/>
<rect x="1040" y="220" width="20" height="20" fill="#121212"/>
<rect x="1060" y="220" width="20" height="20" fill="#121212"/>
<rect x="1080" y="220" width="20" height="20" fill="#121212"/>
<rect x="1100" y="220" width="20" height="20" fill="#121212"/>
<rect x="1120" y="220" width="20" height="20" fill="#121212"/>
<rect x="1140" y="220" width="20" height="20" fill="#121212"/>
<rect x="1160" y="220" width="20" height="20" fill="#121212"/>
<rect x="1200" y="220" width="20" height="20" fill="#121212"/>
<rect x="1220" y="220" width="20" height="20" fill="#121212"/>
<rect x="1240" y="220" width="20" height="20" fill="#121212"/>
<rect x="1260" y="220" width="20" height="20" fill="#121212"/>
<rect x="1320" y="220" width="20" height="20" fill="#121212"/>
<rect x="1360" y="220" width="20" height="20" fill="#121212"/>
<rect x="1380" y="220" width="20" height="20" fill="#121212"/>
<rect x="1420" y="220" width="20" height="20" fill="#121212"/>
<rect x="1440" y="220" width="20" height="20" fill="#121212"/>
<rect x="1460" y="220" width="20" height="20" fill="#121212"/>
<rect x="1480" y="220" width="20" height="20" fill="#121212"/>
<rect x="1500" y="220" width="20" height="20" fill="#121212"/>
<rect x="20" y="200" width="20" height="20" fill="#121212"/>
<rect x="40" y="200" width="20" height="20" fill="#121212"/>
<rect x="180" y="200" width="20" height="20" fill="#121212"/>
<rect x="200" y="200" width="20" height="20" fill="#121212"/>
<rect x="220" y="200" width="20" height="20" fill="#121212"/>
<rect x="220" y="120" width="20" height="20" fill="#121212"/>
<rect x="200" y="120" width="20" height="20" fill="#121212"/>
<rect x="80" y="120" width="20" height="20" fill="#121212"/>
<rect x="60" y="120" width="20" height="20" fill="#121212"/>
<rect x="220" y="140" width="20" height="20" fill="#121212"/>
<rect x="240" y="100" width="20" height="20" fill="#121212"/>
<rect x="240" y="200" width="20" height="20" fill="#121212"/>
<rect x="280" y="200" width="20" height="20" fill="#121212"/>
<rect x="300" y="200" width="20" height="20" fill="#121212"/>
<rect x="340" y="200" width="20" height="20" fill="#121212"/>
<rect x="360" y="200" width="20" height="20" fill="#121212"/>
<rect x="380" y="200" width="20" height="20" fill="#121212"/>
<rect x="400" y="200" width="20" height="20" fill="#121212"/>
<rect x="440" y="200" width="20" height="20" fill="#121212"/>
<rect x="460" y="200" width="20" height="20" fill="#121212"/>
<rect x="480" y="200" width="20" height="20" fill="#121212"/>
<rect x="500" y="200" width="20" height="20" fill="#121212"/>
<rect x="540" y="200" width="20" height="20" fill="#121212"/>
<rect x="560" y="200" width="20" height="20" fill="#121212"/>
<rect x="620" y="200" width="20" height="20" fill="#121212"/>
<rect x="640" y="200" width="20" height="20" fill="#121212"/>
<rect x="680" y="200" width="20" height="20" fill="#121212"/>
<rect x="720" y="200" width="20" height="20" fill="#121212"/>
<rect x="740" y="200" width="20" height="20" fill="#121212"/>
<rect x="760" y="200" width="20" height="20" fill="#121212"/>
<rect x="780" y="200" width="20" height="20" fill="#121212"/>
<rect x="840" y="200" width="20" height="20" fill="#121212"/>
<rect x="840" y="20" width="20" height="20" fill="#121212"/>
<rect x="880" y="200" width="20" height="20" fill="#121212"/>
<rect x="920" y="200" width="20" height="20" fill="#121212"/>
<rect x="940" y="200" width="20" height="20" fill="#121212"/>
<rect x="960" y="200" width="20" height="20" fill="#121212"/>
<rect x="980" y="200" width="20" height="20" fill="#121212"/>
<rect x="1000" y="200" width="20" height="20" fill="#121212"/>
<rect x="1020" y="200" width="20" height="20" fill="#121212"/>
<rect x="1040" y="200" width="20" height="20" fill="#121212"/>
<rect x="1060" y="200" width="20" height="20" fill="#121212"/>
<rect x="1080" y="200" width="20" height="20" fill="#121212"/>
<rect x="1100" y="200" width="20" height="20" fill="#121212"/>
<rect x="1120" y="200" width="20" height="20" fill="#121212"/>
<rect x="1160" y="200" width="20" height="20" fill="#121212"/>
<rect x="1180" y="200" width="20" height="20" fill="#121212"/>
<rect x="1220" y="200" width="20" height="20" fill="#121212"/>
<rect x="1240" y="200" width="20" height="20" fill="#121212"/>
<rect x="1280" y="200" width="20" height="20" fill="#121212"/>
<rect x="1300" y="200" width="20" height="20" fill="#121212"/>
<rect x="1320" y="200" width="20" height="20" fill="#121212"/>
<rect x="1340" y="200" width="20" height="20" fill="#121212"/>
<rect x="1380" y="200" width="20" height="20" fill="#121212"/>
<rect x="1440" y="200" width="20" height="20" fill="#121212"/>
<rect x="1500" y="200" width="20" height="20" fill="#121212"/>
<rect y="180" width="20" height="20" fill="#121212"/>
<rect x="40" y="180" width="20" height="20" fill="#121212"/>
<rect x="80" y="180" width="20" height="20" fill="#121212"/>
<rect x="100" y="180" width="20" height="20" fill="#121212"/>
<rect x="180" y="180" width="20" height="20" fill="#121212"/>
<rect x="240" y="180" width="20" height="20" fill="#121212"/>
<rect x="280" y="180" width="20" height="20" fill="#121212"/>
<rect x="320" y="180" width="20" height="20" fill="#121212"/>
<rect x="380" y="180" width="20" height="20" fill="#121212"/>
<rect x="400" y="180" width="20" height="20" fill="#121212"/>
<rect x="500" y="180" width="20" height="20" fill="#121212"/>
<rect x="540" y="180" width="20" height="20" fill="#121212"/>
<rect x="560" y="180" width="20" height="20" fill="#121212"/>
<rect x="660" y="180" width="20" height="20" fill="#121212"/>
<rect x="700" y="180" width="20" height="20" fill="#121212"/>
<rect x="760" y="180" width="20" height="20" fill="#121212"/>
<rect x="800" y="180" width="20" height="20" fill="#121212"/>
<rect x="820" y="180" width="20" height="20" fill="#121212"/>
<rect x="780" y="180" width="20" height="20" fill="#121212"/>
<rect x="800" width="20" height="20" fill="#121212"/>
<rect x="820" width="20" height="20" fill="#121212"/>
<rect x="840" y="180" width="20" height="20" fill="#121212"/>
<rect x="860" y="180" width="20" height="20" fill="#121212"/>
<rect x="900" y="180" width="20" height="20" fill="#121212"/>
<rect x="920" y="180" width="20" height="20" fill="#121212"/>
<rect x="940" y="180" width="20" height="20" fill="#121212"/>
<rect x="960" y="180" width="20" height="20" fill="#121212"/>
<rect x="980" y="180" width="20" height="20" fill="#121212"/>
<rect x="1000" y="180" width="20" height="20" fill="#121212"/>
<rect x="1020" y="180" width="20" height="20" fill="#121212"/>
<rect x="1040" y="180" width="20" height="20" fill="#121212"/>
<rect x="1060" y="180" width="20" height="20" fill="#121212"/>
<rect x="1080" y="180" width="20" height="20" fill="#121212"/>
<rect x="1100" y="180" width="20" height="20" fill="#121212"/>
<rect x="1140" y="180" width="20" height="20" fill="#121212"/>
<rect x="1160" y="180" width="20" height="20" fill="#121212"/>
<rect x="1180" y="180" width="20" height="20" fill="#121212"/>
<rect x="1220" y="180" width="20" height="20" fill="#121212"/>
<rect x="1240" y="180" width="20" height="20" fill="#121212"/>
<rect x="1260" y="180" width="20" height="20" fill="#121212"/>
<rect x="1280" y="180" width="20" height="20" fill="#121212"/>
<rect x="1300" y="180" width="20" height="20" fill="#121212"/>
<rect x="1360" y="180" width="20" height="20" fill="#121212"/>
<rect x="1380" y="180" width="20" height="20" fill="#121212"/>
<rect x="1400" y="180" width="20" height="20" fill="#121212"/>
<rect x="1420" y="180" width="20" height="20" fill="#121212"/>
<rect x="1440" y="180" width="20" height="20" fill="#121212"/>
<rect x="1480" y="180" width="20" height="20" fill="#121212"/>
<rect x="1500" y="180" width="20" height="20" fill="#121212"/>
<rect x="340" y="160" width="20" height="20" fill="#121212"/>
<rect x="360" y="160" width="20" height="20" fill="#121212"/>
<rect x="380" y="160" width="20" height="20" fill="#121212"/>
<rect x="440" y="160" width="20" height="20" fill="#121212"/>
<rect x="420" y="142" width="20" height="20" fill="#121212"/>
<rect x="480" y="160" width="20" height="20" fill="#121212"/>
<rect x="540" y="160" width="20" height="20" fill="#121212"/>
<rect x="540" y="100" width="20" height="20" fill="#121212"/>
<rect x="720" y="160" width="20" height="20" fill="#121212"/>
<rect x="740" y="160" width="20" height="20" fill="#121212"/>
<rect x="780" y="160" width="20" height="20" fill="#121212"/>
<rect x="800" y="160" width="20" height="20" fill="#121212"/>
<rect x="820" y="160" width="20" height="20" fill="#121212"/>
<rect x="840" y="160" width="20" height="20" fill="#121212"/>
<rect x="860" y="160" width="20" height="20" fill="#121212"/>
<rect x="880" y="160" width="20" height="20" fill="#121212"/>
<rect x="900" y="160" width="20" height="20" fill="#121212"/>
<rect x="940" y="160" width="20" height="20" fill="#121212"/>
<rect x="960" y="160" width="20" height="20" fill="#121212"/>
<rect x="980" y="160" width="20" height="20" fill="#121212"/>
<rect x="1000" y="160" width="20" height="20" fill="#121212"/>
<rect x="1020" y="160" width="20" height="20" fill="#121212"/>
<rect x="1080" y="160" width="20" height="20" fill="#121212"/>
<rect x="1100" y="160" width="20" height="20" fill="#121212"/>
<rect x="1260" y="160" width="20" height="20" fill="#121212"/>
<rect x="1280" y="160" width="20" height="20" fill="#121212"/>
<rect x="1320" y="160" width="20" height="20" fill="#121212"/>
<rect x="1420" y="160" width="20" height="20" fill="#121212"/>
<rect x="1460" y="160" width="20" height="20" fill="#121212"/>
<rect x="1480" y="160" width="20" height="20" fill="#121212"/>
<rect x="1500" y="160" width="20" height="20" fill="#121212"/>
<rect x="360" y="140" width="20" height="20" fill="#121212"/>
<rect x="680" y="140" width="20" height="20" fill="#121212"/>
<rect x="760" y="140" width="20" height="20" fill="#121212"/>
<rect x="820" y="140" width="20" height="20" fill="#121212"/>
<rect x="840" y="140" width="20" height="20" fill="#121212"/>
<rect x="860" y="140" width="20" height="20" fill="#121212"/>
<rect x="880" y="140" width="20" height="20" fill="#121212"/>
<rect x="900" y="140" width="20" height="20" fill="#121212"/>
<rect x="920" y="140" width="20" height="20" fill="#121212"/>
<rect x="960" y="140" width="20" height="20" fill="#121212"/>
<rect x="1280" y="140" width="20" height="20" fill="#121212"/>
<rect x="1460" y="140" width="20" height="20" fill="#121212"/>
<rect x="1500" y="140" width="20" height="20" fill="#121212"/>
<rect x="400" y="80" width="20" height="20" fill="#121212"/>
<rect x="400" y="60" width="20" height="20" fill="#121212"/>
<rect x="440" y="100" width="20" height="20" fill="#121212"/>
<rect x="600" y="120" width="20" height="20" fill="#121212"/>
<rect x="740" y="120" width="20" height="20" fill="#121212"/>
<rect x="760" y="120" width="20" height="20" fill="#121212"/>
<rect x="780" y="120" width="20" height="20" fill="#121212"/>
<rect x="820" y="120" width="20" height="20" fill="#121212"/>
<rect x="860" y="120" width="20" height="20" fill="#121212"/>
<rect x="880" y="60" width="20" height="20" fill="#121212"/>
<rect x="900" y="120" width="20" height="20" fill="#121212"/>
<rect x="920" y="120" width="20" height="20" fill="#121212"/>
<rect x="940" y="120" width="20" height="20" fill="#121212"/>
<rect x="1140" y="120" width="20" height="20" fill="#121212"/>
<rect x="1280" y="20" width="20" height="20" fill="#121212"/>
<rect x="1280" width="20" height="20" fill="#121212"/>
<rect x="1280" y="120" width="20" height="20" fill="#121212"/>
<rect x="1420" y="120" width="20" height="20" fill="#121212"/>
<rect x="1440" y="120" width="20" height="20" fill="#121212"/>
<rect x="1480" y="120" width="20" height="20" fill="#121212"/>
<rect x="180" y="100" width="20" height="20" fill="#121212"/>
<rect x="340" y="100" width="20" height="20" fill="#121212"/>
<rect x="100" y="100" width="20" height="20" fill="#121212"/>
<rect x="360" y="100" width="20" height="20" fill="#121212"/>
<rect x="420" y="60" width="20" height="20" fill="#121212"/>
<rect x="480" y="100" width="20" height="20" fill="#121212"/>
<rect x="520" y="60" width="20" height="20" fill="#121212"/>
<rect x="540" y="60" width="20" height="20" fill="#121212"/>
<rect x="560" y="60" width="20" height="20" fill="#121212"/>
<rect x="660" y="100" width="20" height="20" fill="#121212"/>
<rect x="740" y="100" width="20" height="20" fill="#121212"/>
<rect x="760" y="100" width="20" height="20" fill="#121212"/>
<rect x="840" y="100" width="20" height="20" fill="#121212"/>
<rect x="860" y="100" width="20" height="20" fill="#121212"/>
<rect x="880" y="40" width="20" height="20" fill="#121212"/>
<rect x="900" y="20" width="20" height="20" fill="#121212"/>
<rect x="920" y="100" width="20" height="20" fill="#121212"/>
<rect x="940" y="100" width="20" height="20" fill="#121212"/>
<rect x="1000" y="100" width="20" height="20" fill="#121212"/>
<rect x="1060" y="100" width="20" height="20" fill="#121212"/>
<rect x="1080" y="100" width="20" height="20" fill="#121212"/>
<rect x="1100" y="100" width="20" height="20" fill="#121212"/>
<rect x="1120" y="100" width="20" height="20" fill="#121212"/>
<rect x="1180" y="80" width="20" height="20" fill="#121212"/>
<rect x="1200" y="100" width="20" height="20" fill="#121212"/>
<rect x="1260" y="40" width="20" height="20" fill="#121212"/>
<rect x="1320" y="100" width="20" height="20" fill="#121212"/>
<rect x="360" y="80" width="20" height="20" fill="#121212"/>
<rect x="420" y="40" width="20" height="20" fill="#121212"/>
<rect x="480" y="80" width="20" height="20" fill="#121212"/>
<rect x="520" y="40" width="20" height="20" fill="#121212"/>
<rect x="560" y="40" width="20" height="20" fill="#121212"/>
<rect x="660" y="60" width="20" height="20" fill="#121212"/>
<rect x="680" y="80" width="20" height="20" fill="#121212"/>
<rect x="700" y="60" width="20" height="20" fill="#121212"/>
<rect x="720" y="60" width="20" height="20" fill="#121212"/>
<rect x="740" y="80" width="20" height="20" fill="#121212"/>
<rect x="760" y="80" width="20" height="20" fill="#121212"/>
<rect x="780" y="80" width="20" height="20" fill="#121212"/>
<rect x="800" y="80" width="20" height="20" fill="#121212"/>
<rect x="880" y="80" width="20" height="20" fill="#121212"/>
<rect x="900" y="80" width="20" height="20" fill="#121212"/>
<rect x="920" y="80" width="20" height="20" fill="#121212"/>
<rect x="940" y="80" width="20" height="20" fill="#121212"/>
<rect x="980" y="80" width="20" height="20" fill="#121212"/>
<rect x="1020" y="80" width="20" height="20" fill="#121212"/>
<rect x="1080" y="80" width="20" height="20" fill="#121212"/>
<rect x="1180" y="60" width="20" height="20" fill="#121212"/>
<rect x="1200" y="80" width="20" height="20" fill="#121212"/>
<rect x="1240" y="20" width="20" height="20" fill="#121212"/>
<rect x="1300" y="60" width="20" height="20" fill="#121212"/>
<rect x="1320" y="80" width="20" height="20" fill="#121212"/>
<rect x="1360" y="80" width="20" height="20" fill="#121212"/>
<rect x="1380" y="80" width="20" height="20" fill="#121212"/>
</svg>
