<svg width="1345" height="309" viewBox="0 0 1345 309" fill="none" xmlns="http://www.w3.org/2000/svg">
<path d="M38.7769 304.864L38.8315 305.302H39.2731H111.925H112.367L112.421 304.864L149.89 4.25974L149.96 3.69789H149.394H95.0187H94.5473L94.5196 4.16847L80.3825 243.998H79.0388L63.9895 4.16658L63.9601 3.69789H63.4904H1.80469H1.2385L1.30853 4.25974L38.7769 304.864ZM310.74 304.802V305.302H311.24H364.244H364.744V304.802V4.19789V3.69789H364.244H311.24H310.74V4.19789V304.802ZM389.232 304.802V305.302H389.732H448.22C462.289 305.302 473.907 304.046 483.404 300.074C492.923 296.092 500.276 289.395 505.838 278.591C511.39 267.806 515.154 252.932 517.534 232.586C519.915 212.235 520.915 186.372 520.915 153.586C520.915 123.427 519.944 98.9909 517.541 79.3027C515.139 59.6181 511.303 44.6471 505.553 33.4362C499.795 22.2104 492.12 14.7592 482.071 10.1254C472.038 5.4992 459.675 3.69789 444.564 3.69789H389.732H389.232V4.19789V304.802ZM541.84 304.802V305.302H542.34H638.753H639.253V304.802V255.463V254.963H638.753H595.844V172.817H629.157H629.657V172.317V134.856V134.356H629.157H595.844V54.0372H636.011H636.511V53.5372V4.19789V3.69789H636.011H542.34H541.84V4.19789V304.802ZM652.503 304.802V305.302H653.003H706.008H706.508V304.802V187.436H714.232C719.894 187.436 723.822 188.571 726.364 191.49C728.924 194.431 730.182 199.298 730.182 207.037V304.802V305.302H730.682H783.686H784.186V304.802V209.778C784.186 197.181 782.47 187.142 778.123 179.494C773.872 172.012 767.134 166.872 757.174 163.84C767.866 159.842 774.608 152.595 778.674 141.191C782.817 129.568 784.186 113.617 784.186 92.369C784.186 60.3949 780.997 38.1992 770.784 24.007C760.532 9.76232 743.304 3.69789 715.603 3.69789H653.003H652.503V4.19789V304.802ZM886.742 139.47L886.738 139.468C876.673 132.607 867.598 125.793 863.54 120.834L863.537 120.83C861.325 118.176 859.636 114.496 858.504 108.438C857.37 102.373 856.799 93.9583 856.799 81.8616C856.799 67.236 857.602 58.2923 859.399 53.0131C860.294 50.3847 861.42 48.7156 862.768 47.6975C864.112 46.6835 865.736 46.2708 867.722 46.2708C869.699 46.2708 871.147 46.6771 872.299 48.1302C873.496 49.6386 874.425 52.3338 875.109 57.0918C876.474 66.5847 876.818 83.9026 876.818 115.211V115.711H877.318H922.554H923.054V115.211C923.054 92.3633 922.426 73.7817 920.723 58.7632C919.021 43.7487 916.242 32.2606 911.92 23.6186C907.591 14.9605 901.714 9.16341 893.848 5.54255C885.999 1.92985 876.206 0.5 864.067 0.5C844.305 0.5 828.942 6.71044 818.543 20.7464C808.167 34.7506 802.795 56.466 802.795 87.3437C802.795 120.302 810.576 140.524 818.89 151.149C826.476 161.408 837.939 169.49 845.695 174.959L846.407 175.461C846.408 175.462 846.41 175.463 846.411 175.464C846.798 175.749 847.183 176.032 847.567 176.315C851.5 179.21 855.292 182.001 858.611 184.697C862.256 187.659 865.301 190.482 867.319 193.171C871.787 199.428 873.619 207.053 873.619 226.682C873.619 242.234 873.043 251.286 871.359 256.45C870.523 259.013 869.433 260.555 868.059 261.471C866.679 262.391 864.939 262.729 862.696 262.729C860.145 262.729 858.184 262.177 856.62 260.581C855.031 258.958 853.784 256.191 852.848 251.594C850.975 242.403 850.402 226.24 850.402 198.357V197.857H849.902H803.295H802.795V198.357C802.795 238.089 805.414 265.618 814.387 283.215C818.885 292.036 824.983 298.371 833.141 302.493C841.289 306.609 851.456 308.5 864.067 308.5C886.533 308.5 902.372 302.997 912.559 289.398C922.714 275.84 927.166 254.34 927.166 222.57C927.166 196.016 922.587 178.554 914.297 165.201C908.297 155.51 897.251 146.78 886.742 139.47ZM222.538 308.5C234.354 308.5 244.389 306.608 252.781 301.773C261.181 296.934 267.884 289.176 273.086 277.538C283.473 254.301 287.923 215.482 287.923 153.129C287.923 93.9718 283.587 55.8408 273.258 32.4914C268.086 20.7994 261.4 12.7859 252.983 7.70305C244.57 2.62286 234.476 0.5 222.538 0.5C210.601 0.5 200.507 2.62286 192.094 7.70305C183.676 12.7859 176.99 20.7994 171.819 32.4914C161.49 55.8408 157.154 93.9718 157.154 153.129C157.154 215.482 161.604 254.301 171.991 277.538C177.193 289.176 183.896 296.934 192.295 301.773C200.688 306.608 210.723 308.5 222.538 308.5ZM222.538 258.161C221.487 258.161 220.565 258.042 219.736 257.678C218.915 257.318 218.149 256.7 217.434 255.64C215.984 253.489 214.78 249.567 213.838 242.491C211.959 228.368 211.158 202.021 211.158 153.129C211.158 106.523 211.959 80.8609 213.838 66.8522C214.78 59.8352 215.984 55.8209 217.44 53.5657C218.159 52.4516 218.93 51.7816 219.753 51.3836C220.58 50.9833 221.498 50.8393 222.538 50.8393C223.579 50.8393 224.496 50.9833 225.324 51.3836C226.146 51.7816 226.918 52.4516 227.637 53.5657C229.093 55.8209 230.297 59.8352 231.239 66.8522C233.118 80.8609 233.919 106.523 233.919 153.129C233.919 202.021 233.118 228.368 231.238 242.491C230.297 249.567 229.093 253.489 227.643 255.64C226.928 256.7 226.161 257.318 225.34 257.678C224.511 258.042 223.59 258.161 222.538 258.161ZM443.236 254.963V54.0372H448.677C452.635 54.0372 455.646 54.6338 458.012 56.817C460.397 59.0185 462.213 62.912 463.55 69.7371C466.223 83.3837 466.911 108.339 466.911 153.586C466.911 201.351 466.566 226.764 464.234 240.245C463.066 246.99 461.419 250.624 459.177 252.596C456.95 254.556 454.036 254.963 450.047 254.963H443.236ZM706.508 150.802V54.0372H714.232C717.747 54.0372 720.43 54.4656 722.516 55.7542C724.585 57.0329 726.142 59.2089 727.292 62.8806C728.444 66.5614 729.17 71.6945 729.604 78.8155C730.039 85.9305 730.182 94.9975 730.182 106.531C730.182 116.463 729.953 124.211 729.399 130.249C728.843 136.292 727.964 140.586 726.68 143.627C725.404 146.65 723.738 148.416 721.598 149.445C719.433 150.487 716.728 150.802 713.318 150.802H706.508Z" fill="#FFFBD5" stroke="black"/>
<path d="M1033.8 184.621L1033.77 184.152H1033.3H1004.95H1004.42L1004.45 184.683C1004.91 191.983 1005.37 205.221 1005.37 214.347C1005.37 241.544 1004.79 257.592 1002.86 266.839C1001.9 271.463 1000.61 274.303 998.951 275.992C997.319 277.656 995.269 278.262 992.608 278.262C989.251 278.262 986.755 277.624 984.791 275.04C982.777 272.392 981.273 267.643 980.188 259.225C978.021 242.419 977.563 211.392 977.563 154.5C977.563 97.6131 978.593 66.5872 981.101 49.7849C982.357 41.3715 983.973 36.6118 985.951 33.9559C986.929 32.6419 987.994 31.8472 989.153 31.3748C990.32 30.8992 991.613 30.7381 993.065 30.7381C995.846 30.7381 997.918 31.3469 999.524 33.038C1001.16 34.7573 1002.38 37.6645 1003.26 42.4353C1005.02 51.9733 1005.37 68.5937 1005.37 96.9375C1005.37 111.55 1004.91 131.187 1004.45 141.687L1004.43 142.208H1004.95H1032.84H1033.32L1033.34 141.73C1033.37 140.983 1033.41 140.189 1033.44 139.354C1033.92 128.451 1034.71 110.464 1034.71 96.0238C1034.71 59.2677 1033 35.4087 1026.96 20.7394C1023.93 13.3808 1019.79 8.3007 1014.21 5.07144C1008.64 1.8482 1001.68 0.5 993.065 0.5C984.906 0.5 977.792 1.70424 971.738 5.67871C965.681 9.65542 960.756 16.3588 956.876 27.2145C949.128 48.894 945.475 87.354 945.475 154.5C945.475 220.726 948.213 259.184 955.444 281.089C959.064 292.058 963.831 298.938 969.999 303.062C976.162 307.182 983.651 308.5 992.608 308.5C1000.43 308.5 1007.01 307.236 1012.47 304.145C1017.94 301.05 1022.23 296.149 1025.52 288.964C1032.09 274.633 1034.71 251.116 1034.71 214.347C1034.71 205.199 1034.25 191.94 1033.8 184.621ZM1061.61 304.802V305.302H1062.11H1123.83H1124.33V304.802V275.564V275.064H1123.83H1093.7V4.1979V3.6979H1093.2H1062.11H1061.61V4.1979V304.802ZM1224.5 4.1979V3.6979H1224H1195.66H1195.16V4.1979V241.757C1195.16 257.744 1193.67 266.663 1191.27 271.575C1190.07 274.014 1188.67 275.439 1187.13 276.265C1185.58 277.096 1183.85 277.348 1181.94 277.348C1179.81 277.348 1177.83 277.094 1176.06 276.254C1174.31 275.419 1172.71 273.985 1171.35 271.552C1168.62 266.648 1166.9 257.74 1166.9 241.757V4.1979V3.6979H1166.4H1135.31H1134.81V4.1979V237.189C1134.81 266.907 1139.27 284.752 1147.14 295.167C1155.05 305.628 1166.33 308.5 1179.66 308.5C1192.98 308.5 1204.26 305.628 1212.17 295.167C1220.05 284.752 1224.5 266.907 1224.5 237.189V4.1979ZM1252.7 304.802V305.302H1253.2H1296.18C1305.69 305.302 1313.48 304.301 1319.8 301.681C1326.15 299.053 1330.99 294.806 1334.61 288.373C1338.23 281.955 1340.63 273.374 1342.13 262.081C1343.62 250.785 1344.22 236.74 1344.22 219.372C1344.22 197.899 1343.08 181.614 1339.46 169.829C1335.9 158.256 1329.93 150.974 1320.28 147.398C1328.33 143.833 1333.27 137.234 1336.2 126.652C1339.2 115.843 1340.11 100.82 1340.11 80.4911C1340.11 54.9226 1338.52 35.7262 1331.76 22.9237C1328.38 16.5009 1323.69 11.6819 1317.27 8.47601C1310.85 5.27502 1302.74 3.6979 1292.52 3.6979H1253.2H1252.7V4.1979V304.802ZM1284.79 138.467V31.1949H1292.52C1296.91 31.1949 1300.19 32.0952 1302.66 34.0232C1305.14 35.9529 1306.88 38.9661 1308.1 43.3348C1310.53 52.1048 1310.76 66.0707 1310.76 86.8869C1310.76 97.504 1310.53 106.053 1309.94 112.905C1309.34 119.762 1308.37 124.89 1306.91 128.68C1305.45 132.459 1303.52 134.882 1300.98 136.373C1298.43 137.872 1295.22 138.467 1291.15 138.467H1284.79ZM1284.79 277.805V161.396H1292.98C1297.6 161.396 1301.12 162.27 1303.81 164.147C1306.5 166.022 1308.44 168.941 1309.82 173.158C1312.59 181.631 1313.05 195.133 1313.05 215.26C1313.05 229.534 1312.85 240.6 1312.32 249.172C1311.79 257.75 1310.94 263.798 1309.64 268.052C1308.35 272.298 1306.63 274.697 1304.41 276.059C1302.18 277.431 1299.36 277.805 1295.72 277.805H1284.79Z" fill="#FFFBD5" stroke="black"/>
</svg>
